<svg width="800" height="600" xmlns="http://www.w3.org/2000/svg">
  <defs>
    <linearGradient id="grad1" x1="0%" y1="0%" x2="100%" y2="0%">
      <stop offset="0%" style="stop-color:#fff7ed;stop-opacity:1" />
      <stop offset="100%" style="stop-color:#f3f4f6;stop-opacity:1" />
    </linearGradient>
  </defs>
  <rect width="800" height="600" fill="url(#grad1)"/>
  
  <!-- Navbar -->
  <rect x="0" y="0" width="800" height="80" fill="rgba(255,255,255,0.9)"/>
  <text x="40" y="50" font-family="Arial" font-size="28" font-weight="bold" fill="#1f2937">Luma</text>
  <rect x="580" y="20" width="60" height="40" rx="20" fill="#f97316"/>
  
  <!-- Hero Text -->
  <text x="40" y="200" font-family="Arial" font-size="72" font-weight="bold" fill="#1f2937">Luma Studio</text>
  <rect x="40" y="220" width="500" height="4" fill="#f97316"/>
  <rect x="40" y="250" width="600" height="12" rx="2" fill="#9ca3af"/>
  <rect x="40" y="270" width="450" height="12" rx="2" fill="#9ca3af"/>
  
  <!-- Project Cards -->
  <rect x="400" y="320" width="380" height="180" rx="12" fill="#ffffff" stroke="#e5e7eb"/>
  <rect x="420" y="340" width="340" height="80" rx="6" fill="#f3f4f6"/>
  <rect x="420" y="440" width="250" height="16" rx="2" fill="#6b7280"/>
  <rect x="420" y="465" width="200" height="12" rx="2" fill="#d1d5db"/>
  
  <rect x="400" y="520" width="180" height="60" rx="8" fill="#ffffff" stroke="#e5e7eb"/>
  <rect x="420" y="535" width="140" height="30" rx="4" fill="#f3f4f6"/>
  
  <rect x="600" y="520" width="180" height="60" rx="8" fill="#ffffff" stroke="#e5e7eb"/>
  <rect x="620" y="535" width="140" height="30" rx="4" fill="#f3f4f6"/>
</svg>

