<svg width="800" height="600" xmlns="http://www.w3.org/2000/svg">
  <rect width="800" height="600" fill="#ffffff"/>
  
  <!-- Header -->
  <rect x="0" y="0" width="800" height="70" fill="#1f2937"/>
  <text x="40" y="45" font-family="Arial" font-size="24" font-weight="bold" fill="#ffffff">Mindfolio</text>
  <circle cx="700" cy="35" r="15" fill="#f97316"/>
  
  <!-- Featured Article -->
  <rect x="40" y="100" width="720" height="300" rx="8" fill="#f9fafb" stroke="#e5e7eb"/>
  <rect x="60" y="120" width="200" height="16" rx="3" fill="#9ca3af"/>
  <rect x="60" y="150" width="500" height="32" rx="4" fill="#1f2937"/>
  <rect x="60" y="200" width="600" height="12" rx="2" fill="#d1d5db"/>
  <rect x="60" y="220" width="450" height="12" rx="2" fill="#d1d5db"/>
  <rect x="60" y="240" width="400" height="12" rx="2" fill="#d1d5db"/>
  <rect x="60" y="340" width="120" height="32" rx="4" fill="#f97316"/>
  
  <!-- Side Cards -->
  <rect x="40" y="420" width="230" height="160" rx="8" fill="#ffffff" stroke="#e5e7eb"/>
  <rect x="60" y="440" width="190" height="100" rx="4" fill="#f3f4f6"/>
  <rect x="60" y="550" width="150" height="12" rx="2" fill="#6b7280"/>
  
  <rect x="290" y="420" width="230" height="160" rx="8" fill="#ffffff" stroke="#e5e7eb"/>
  <rect x="310" y="440" width="190" height="100" rx="4" fill="#f3f4f6"/>
  <rect x="310" y="550" width="150" height="12" rx="2" fill="#6b7280"/>
  
  <rect x="540" y="420" width="220" height="160" rx="8" fill="#ffffff" stroke="#e5e7eb"/>
  <rect x="560" y="440" width="180" height="100" rx="4" fill="#f3f4f6"/>
  <rect x="560" y="550" width="150" height="12" rx="2" fill="#6b7280"/>
</svg>

