<svg width="800" height="600" xmlns="http://www.w3.org/2000/svg">
  <defs>
    <linearGradient id="bg" x1="0%" y1="0%" x2="100%" y2="100%">
      <stop offset="0%" style="stop-color:#f5f5f5;stop-opacity:1" />
      <stop offset="100%" style="stop-color:#e5e5e5;stop-opacity:1" />
    </linearGradient>
  </defs>
  <rect width="800" height="600" fill="url(#bg)"/>
  
  <!-- Header -->
  <rect x="0" y="0" width="800" height="50" fill="#ffffff" stroke="#e0e0e0"/>
  <rect x="20" y="15" width="120" height="20" rx="3" fill="#1f2937"/>
  <rect x="160" y="15" width="60" height="8" rx="2" fill="#d1d5db"/>
  <rect x="230" y="15" width="60" height="8" rx="2" fill="#d1d5db"/>
  <rect x="300" y="15" width="60" height="8" rx="2" fill="#d1d5db"/>
  <circle cx="750" cy="25" r="12" fill="#f3f4f6"/>
  
  <!-- Sidebar -->
  <rect x="0" y="50" width="80" height="550" fill="#ffffff" stroke="#e0e0e0"/>
  <rect x="15" y="70" width="50" height="50" rx="5" fill="#f97316" opacity="0.2"/>
  <rect x="15" y="130" width="50" height="50" rx="5" fill="#f97316" opacity="0.1"/>
  <rect x="15" y="190" width="50" height="50" rx="5" fill="#f97316" opacity="0.1"/>
  
  <!-- Cards -->
  <rect x="100" y="80" width="220" height="120" rx="8" fill="#ffffff" stroke="#e0e0e0"/>
  <rect x="120" y="95" width="180" height="16" rx="3" fill="#9ca3af"/>
  <rect x="120" y="120" width="100" height="24" rx="3" fill="#f97316"/>
  <rect x="120" y="150" width="80" height="12" rx="2" fill="#d1d5db"/>
  
  <rect x="340" y="80" width="220" height="120" rx="8" fill="#ffffff" stroke="#e0e0e0"/>
  <rect x="360" y="95" width="180" height="16" rx="3" fill="#9ca3af"/>
  <rect x="360" y="120" width="100" height="24" rx="3" fill="#f97316"/>
  <rect x="360" y="150" width="80" height="12" rx="2" fill="#d1d5db"/>
  
  <rect x="580" y="80" width="200" height="120" rx="8" fill="#ffffff" stroke="#e0e0e0"/>
  <rect x="600" y="95" width="160" height="16" rx="3" fill="#9ca3af"/>
  <rect x="600" y="120" width="100" height="24" rx="3" fill="#f97316"/>
  <rect x="600" y="150" width="80" height="12" rx="2" fill="#d1d5db"/>
  
  <!-- Chart -->
  <rect x="100" y="220" width="660" height="300" rx="8" fill="#ffffff" stroke="#e0e0e0"/>
  <rect x="120" y="240" width="150" height="16" rx="3" fill="#6b7280"/>
  
  <!-- Bars -->
  <rect x="120" y="280" width="60" height="120" rx="3" fill="#f97316"/>
  <rect x="200" y="310" width="60" height="90" rx="3" fill="#f97316"/>
  <rect x="280" y="320" width="60" height="80" rx="3" fill="#f97316"/>
  <rect x="360" y="290" width="60" height="110" rx="3" fill="#f97316"/>
  <rect x="440" y="300" width="60" height="100" rx="3" fill="#f97316"/>
  <rect x="520" y="280" width="60" height="120" rx="3" fill="#f97316"/>
  <rect x="600" y="270" width="60" height="130" rx="3" fill="#f97316"/>
</svg>

